<!--?xml version="1.0" encoding="us-ascii" standalone="no"?--><svg xmlns="http://www.w3.org/2000/svg" xmlns:xlink="http://www.w3.org/1999/xlink" contentstyletype="text/css" height="320px" preserveAspectRatio="none" style="width:442px;height:320px;background:#FFFFFF;" version="1.1" viewBox="0 0 442 320" width="442px" zoomAndPan="magnify"><defs></defs><g><!--cluster User Support System--><g id="cluster_User Support System"><rect fill="none" height="307" rx="2.5" ry="2.5" style="stroke:#181818;stroke-width:1.0;" width="222.02" x="214" y="7"></rect><text fill="#000000" font-family="sans-serif" font-size="14" font-weight="bold" lengthAdjust="spacing" textLength="168" x="241.01" y="21.9951">User Support System</text></g><g id="elem_SA"><ellipse cx="325.0051" cy="60.001" fill="#F1F1F1" rx="78.1551" ry="18.031" style="stroke:#181818;stroke-width:0.5;"></ellipse><text fill="#000000" font-family="sans-serif" font-size="14" lengthAdjust="spacing" textLength="114" x="265.6159" y="63.5866">Seek Assistance</text></g><g id="elem_FA"><ellipse cx="325.0052" cy="128.999" fill="#F1F1F1" rx="69.6952" ry="16.339" style="stroke:#181818;stroke-width:0.5;"></ellipse><text fill="#000000" font-family="sans-serif" font-size="14" lengthAdjust="spacing" textLength="92" x="276.0052" y="132.7466">Find Answers</text></g><g id="elem_SST"><ellipse cx="325.0118" cy="202.0024" fill="#F1F1F1" rx="95.0118" ry="21.4024" style="stroke:#181818;stroke-width:0.5;"></ellipse><text fill="#000000" font-family="sans-serif" font-size="14" lengthAdjust="spacing" textLength="153" x="248.5118" y="204.849">Submit Support Ticket</text></g><g id="elem_CTS"><ellipse cx="325.0118" cy="278.0004" fill="#F1F1F1" rx="88.3518" ry="20.0704" style="stroke:#181818;stroke-width:0.5;"></ellipse><text fill="#000000" font-family="sans-serif" font-size="14" lengthAdjust="spacing" textLength="138" x="256.0118" y="280.847">Check Ticket Status</text></g><!--entity U--><g id="elem_U"><ellipse cx="88" cy="80.35" fill="#F1F1F1" rx="8" ry="8" style="stroke:#181818;stroke-width:0.5;"></ellipse><path d="M88,88.35 L88,115.35 M75,96.35 L101,96.35 M88,115.35 L75,130.35 M88,115.35 L101,130.35 " fill="none" style="stroke:#181818;stroke-width:0.5;"></path><text fill="#000000" font-family="sans-serif" font-size="14" lengthAdjust="spacing" textLength="32" x="72" y="144.8451">User</text></g><!--entity CSA--><g id="elem_CSA"><ellipse cx="88" cy="191.35" fill="#F1F1F1" rx="8" ry="8" style="stroke:#181818;stroke-width:0.5;"></ellipse><path d="M88,199.35 L88,226.35 M75,207.35 L101,207.35 M88,226.35 L75,241.35 M88,226.35 L101,241.35 " fill="none" style="stroke:#181818;stroke-width:0.5;"></path><text fill="#000000" font-family="sans-serif" font-size="14" lengthAdjust="spacing" textLength="164" x="6" y="255.8451">CustomerSupportAgent</text></g><!--link U to SA--><g id="link_U_SA"><path d="M104.42,106.72 C135.55,100.1 207.48,84.79 260.57,73.5 " fill="none" id="U-to-SA" style="stroke:#181818;stroke-width:1.0;"></path><polygon fill="#181818" points="265.3,72.28,255.6633,70.2469,260.4102,73.3237,257.3333,78.0706,265.3,72.28" style="stroke:#181818;stroke-width:1.0;"></polygon></g><!--link U to FA--><g id="link_U_FA"><path d="M104.42,111.25 C134.02,113.64 200.47,119.01 252.57,123.22 " fill="none" id="U-to-FA" style="stroke:#181818;stroke-width:1.0;"></path><polygon fill="#181818" points="257.53,123.71,248.8921,118.9785,252.5472,123.296,248.2297,126.951,257.53,123.71" style="stroke:#181818;stroke-width:1.0;"></polygon></g><!--link U to SST--><g id="link_U_SST"><path d="M104.3,117.56 C126.43,128.35 168.82,148.48 206,163 C223.94,170.01 243.72,176.87 261.87,182.83 " fill="none" id="U-to-SST" style="stroke:#181818;stroke-width:1.0;"></path><polygon fill="#181818" points="266.45,184.66,259.1409,178.0587,261.6981,183.1046,256.6522,185.6618,266.45,184.66" style="stroke:#181818;stroke-width:1.0;"></polygon></g><!--link U to CTS--><g id="link_U_CTS"><path d="M104.23,117.18 C122,126.2 151.31,143.18 170,165 C194.32,193.38 177.81,216.46 206,241 C217.83,251.29 232.51,258.73 247.46,264.09 " fill="none" id="U-to-CTS" style="stroke:#181818;stroke-width:1.0;"></path><polygon fill="#181818" points="251.97,265.98,244.745,259.2868,247.2381,264.3646,242.1603,266.8578,251.97,265.98" style="stroke:#181818;stroke-width:1.0;"></polygon></g><!--link CSA to SA--><g id="link_CSA_SA"><path d="M152.66,182.54 C158.91,177.41 164.83,171.87 170,166 C193.38,139.44 178.82,117.65 206,95 C219.2,84 235.75,76.45 252.24,71.28 " fill="none" id="CSA-to-SA" style="stroke:#181818;stroke-width:1.0;"></path><polygon fill="#181818" points="256.83,69.62,247.0619,68.3614,252.0389,71.0502,249.3502,76.0272,256.83,69.62" style="stroke:#181818;stroke-width:1.0;"></polygon></g><!--link CSA to FA--><g id="link_CSA_FA"><path d="M161.74,182.43 C176.2,175.49 191.42,168.66 206,163 C226.44,155.06 249.5,148.02 269.78,142.43 " fill="none" id="CSA-to-FA" style="stroke:#181818;stroke-width:1.0;"></path><polygon fill="#181818" points="274.42,140.89,264.6843,139.4014,269.5965,142.2068,266.7912,147.119,274.42,140.89" style="stroke:#181818;stroke-width:1.0;"></polygon></g><!--link CSA to SST--><g id="link_CSA_SST"><path d="M170.21,214.43 C189.29,212.89 209.78,211.24 229.39,209.65 " fill="none" id="CSA-to-SST" style="stroke:#181818;stroke-width:1.0;"></path><polygon fill="#181818" points="234.17,209.18,224.8789,205.9126,229.186,209.5799,225.5187,213.8869,234.17,209.18" style="stroke:#181818;stroke-width:1.0;"></polygon></g><!--link CSA to CTS--><g id="link_CSA_CTS"><path d="M170.21,240.7 C198.7,247.61 230.34,255.28 257.48,261.86 " fill="none" id="CSA-to-CTS" style="stroke:#181818;stroke-width:1.0;"></path><polygon fill="#181818" points="262.21,263.25,254.4154,257.2297,257.3526,262.0642,252.5181,265.0015,262.21,263.25" style="stroke:#181818;stroke-width:1.0;"></polygon></g><!--SRC=[LOz13eCW44Ntd6BYtYiqCIPS03q0fLCbAXXcIDCqlNj1fRMxH_xxVyACTmRs4EmmCjniGCFMEo6qOH-W9moW2VhZtKPYls1GSLrzu6P0npblLID4xcetp0ZLrZiaK4zYN2fu2O18Q3GbGo5Eq11PIXs3LLv98oT3MdU3nj430ssn_8jLl2wMlqSwQoRaVKPrPx4TqKn73eerntskxPHu2z53NL_owHraWRooKnRJ1ujNKFumkuMJ_G40]--></g></svg>