<!--?xml version="1.0" encoding="us-ascii" standalone="no"?--><svg xmlns="http://www.w3.org/2000/svg" xmlns:xlink="http://www.w3.org/1999/xlink" contentstyletype="text/css" height="280px" preserveAspectRatio="none" style="width:741px;height:280px;background:#FFFFFF;" version="1.1" viewBox="0 0 741 280" width="741px" zoomAndPan="magnify"><defs></defs><g><!--cluster OnlineLPGBookingSystem--><g id="cluster_OnlineLPGBookingSystem"><rect fill="none" height="160" rx="2.5" ry="2.5" style="stroke:#181818;stroke-width:1.0;" width="473.92" x="262" y="101.65"></rect><text fill="#000000" font-family="sans-serif" font-size="14" font-weight="bold" lengthAdjust="spacing" textLength="202" x="397.96" y="116.6451">OnlineLPGBookingSystem</text></g><g id="elem_MO"><ellipse cx="650.9507" cy="152.6461" fill="#F1F1F1" rx="67.8807" ry="15.9761" style="stroke:#181818;stroke-width:0.5;"></ellipse><text fill="#000000" font-family="sans-serif" font-size="14" lengthAdjust="spacing" textLength="87" x="604.4507" y="156.3937">Modify Order</text></g><g id="elem_CO"><ellipse cx="650.954" cy="219.6528" fill="#F1F1F1" rx="68.964" ry="16.1928" style="stroke:#181818;stroke-width:0.5;"></ellipse><text fill="#000000" font-family="sans-serif" font-size="14" lengthAdjust="spacing" textLength="90" x="602.954" y="223.4004">Cancel Order</text></g><g id="elem_MOO"><ellipse cx="352.9948" cy="182.649" fill="#F1F1F1" rx="74.9948" ry="17.399" style="stroke:#181818;stroke-width:0.5;"></ellipse><text fill="#000000" font-family="sans-serif" font-size="14" lengthAdjust="spacing" textLength="106" x="296.9948" y="186.3965">Manage Orders</text></g><!--entity U--><g id="elem_U"><ellipse cx="352.99" cy="14" fill="#F1F1F1" rx="8" ry="8" style="stroke:#181818;stroke-width:0.5;"></ellipse><path d="M352.99,22 L352.99,49 M339.99,30 L365.99,30 M352.99,49 L339.99,64 M352.99,49 L365.99,64 " fill="none" style="stroke:#181818;stroke-width:0.5;"></path><text fill="#000000" font-family="sans-serif" font-size="14" lengthAdjust="spacing" textLength="32" x="336.99" y="78.4951">User</text></g><!--entity A--><g id="elem_A"><ellipse cx="57.5" cy="97" fill="#F1F1F1" rx="8" ry="8" style="stroke:#181818;stroke-width:0.5;"></ellipse><path d="M57.5,105 L57.5,132 M44.5,113 L70.5,113 M57.5,132 L44.5,147 M57.5,132 L70.5,147 " fill="none" style="stroke:#181818;stroke-width:0.5;"></path><text fill="#000000" font-family="sans-serif" font-size="14" lengthAdjust="spacing" textLength="43" x="36" y="161.4951">Admin</text></g><!--entity D--><g id="elem_D"><ellipse cx="57.5" cy="208" fill="#F1F1F1" rx="8" ry="8" style="stroke:#181818;stroke-width:0.5;"></ellipse><path d="M57.5,216 L57.5,243 M44.5,224 L70.5,224 M57.5,243 L44.5,258 M57.5,243 L70.5,258 " fill="none" style="stroke:#181818;stroke-width:0.5;"></path><text fill="#000000" font-family="sans-serif" font-size="14" lengthAdjust="spacing" textLength="103" x="6" y="272.4951">DeliveryPerson</text></g><!--link U to MO--><g id="link_U_MO"><path d="M369.34,43.95 C403.57,45.11 488.15,50.83 551.99,78.65 C582.15,91.79 611.54,115.98 630.14,133.12 " fill="none" id="U-to-MO" style="stroke:#181818;stroke-width:1.0;"></path><polygon fill="#181818" points="633.17,135.88,629.321,126.8144,629.5152,132.4679,623.8617,132.6621,633.17,135.88" style="stroke:#181818;stroke-width:1.0;"></polygon><text fill="#000000" font-family="sans-serif" font-size="13" lengthAdjust="spacing" textLength="92" x="458.99" y="49.7169">Modifies Order</text></g><!--link U to CO--><g id="link_U_CO"><path d="M369.41,53.64 C389.34,66.29 425.36,88.29 457.99,103.65 C498.33,122.63 517.31,110.63 551.99,138.65 C571.27,154.22 563.58,169.06 581.99,185.65 C589.53,192.44 598.67,198.22 607.77,202.98 " fill="none" id="U-to-CO" style="stroke:#181818;stroke-width:1.0;"></path><polygon fill="#181818" points="612.12,205.67,605.8881,198.0435,607.6565,203.4168,602.2831,205.1851,612.12,205.67" style="stroke:#181818;stroke-width:1.0;"></polygon><text fill="#000000" font-family="sans-serif" font-size="13" lengthAdjust="spacing" textLength="90" x="459.99" y="99.7169">Cancels Order</text></g><!--link A to MOO--><g id="link_A_MOO"><path d="M79.14,130.59 C121.97,138.76 222.04,157.85 288.35,170.51 " fill="none" id="A-to-MOO" style="stroke:#181818;stroke-width:1.0;"></path><polygon fill="#181818" points="292.86,171.56,284.7749,165.9358,287.9496,170.6179,283.2675,173.7925,292.86,171.56" style="stroke:#181818;stroke-width:1.0;"></polygon><text fill="#000000" font-family="sans-serif" font-size="13" lengthAdjust="spacing" textLength="105" x="140" y="139.7169">Manages Orders</text></g><!--link D to MOO--><g id="link_D_MOO"><path d="M109.29,228.13 C158.76,218.86 234.13,204.74 287.74,194.69 " fill="none" id="D-to-MOO" style="stroke:#181818;stroke-width:1.0;"></path><polygon fill="#181818" points="292.52,193.61,282.9402,191.3237,287.6043,194.5245,284.4035,199.1887,292.52,193.61" style="stroke:#181818;stroke-width:1.0;"></polygon><text fill="#000000" font-family="sans-serif" font-size="13" lengthAdjust="spacing" textLength="105" x="140" y="199.7169">Manages Orders</text></g><!--link MOO to MO--><g id="link_MOO_MO"><path d="M422.27,175.73 C470.33,170.86 534.39,164.36 582.31,159.51 " fill="none" id="MOO-to-MO" style="stroke:#181818;stroke-width:1.0;"></path><polygon fill="#181818" points="587.07,158.92,577.7149,155.8407,582.0951,159.4203,578.5155,163.8006,587.07,158.92" style="stroke:#181818;stroke-width:1.0;"></polygon><text fill="#000000" font-family="sans-serif" font-size="13" lengthAdjust="spacing" textLength="92" x="458.99" y="159.7169">Modifies Order</text></g><!--link MOO to CO--><g id="link_MOO_CO"><path d="M416.92,192.03 C430.46,193.96 444.69,195.93 457.99,197.65 C499.04,202.96 545.12,208.26 581.84,212.33 " fill="none" id="MOO-to-CO" style="stroke:#181818;stroke-width:1.0;"></path><polygon fill="#181818" points="586.65,212.97,578.1389,208.014,581.6797,212.4257,577.268,215.9665,586.65,212.97" style="stroke:#181818;stroke-width:1.0;"></polygon><text fill="#000000" font-family="sans-serif" font-size="13" lengthAdjust="spacing" textLength="90" x="459.99" y="193.7169">Cancels Order</text></g><!--SRC=[VSx1QiCm30RWkvz2zDuNw66G9T3BGWeb3o0SDHLrx2AvWp3sxhCJh-rWsz7wfF-terE4641uF4SOMCX63jxeXVqL1IUuehtWICSuEuBCw4T7ng2DGQ1N4a25lhohOMAV1rKPDEJudMG-a6XOf37c7WETT-pfxR1_3I5LZiTP8qtmOG1kIXQLODE6WKypT3AGR792sprpZTwIU-Bw1xVeq_TNrdBUcRJHmtRxaXwmWwM1ITUjkzNPrlW7LULikLkoYsd2vZ_Cuxyhl_MNqiyl]--></g></svg>