<!--?xml version="1.0" encoding="us-ascii" standalone="no"?--><svg xmlns="http://www.w3.org/2000/svg" xmlns:xlink="http://www.w3.org/1999/xlink" contentstyletype="text/css" height="530px" preserveAspectRatio="none" style="width:1595px;height:530px;background:#FFFFFF;" version="1.1" viewBox="0 0 1595 530" width="1595px" zoomAndPan="magnify"><defs></defs><g><!--cluster Online LPG Booking System--><g id="cluster_Online LPG Booking System"><rect fill="none" height="103" rx="2.5" ry="2.5" style="stroke:#181818;stroke-width:1.0;" width="1287.19" x="302" y="207.65"></rect><text fill="#000000" font-family="sans-serif" font-size="14" font-weight="bold" lengthAdjust="spacing" textLength="217" x="837.095" y="222.6451">Online LPG Booking System</text></g><g id="elem_PBO"><ellipse cx="421.6177" cy="265.6535" fill="#F1F1F1" rx="103.6177" ry="23.1235" style="stroke:#181818;stroke-width:0.5;"></ellipse><text fill="#000000" font-family="sans-serif" font-size="14" lengthAdjust="spacing" textLength="172" x="335.6177" y="268.5002">Place LPG Booking Order</text></g><g id="elem_SDD"><ellipse cx="833.4999" cy="264.652" fill="#F1F1F1" rx="97.2599" ry="21.852" style="stroke:#181818;stroke-width:0.5;"></ellipse><text fill="#000000" font-family="sans-serif" font-size="14" lengthAdjust="spacing" textLength="158" x="754.4999" y="267.4987">Specify Delivery Details</text></g><g id="elem_SQ"><ellipse cx="1173.3212" cy="260.6522" fill="#F1F1F1" rx="76.5612" ry="17.7122" style="stroke:#181818;stroke-width:0.5;"></ellipse><text fill="#000000" font-family="sans-serif" font-size="14" lengthAdjust="spacing" textLength="110" x="1115.3212" y="264.3998">Specify Quantity</text></g><g id="elem_CB"><ellipse cx="1495.0251" cy="260.651" fill="#F1F1F1" rx="78.1551" ry="18.031" style="stroke:#181818;stroke-width:0.5;"></ellipse><text fill="#000000" font-family="sans-serif" font-size="14" lengthAdjust="spacing" textLength="114" x="1435.6359" y="264.2366">Confirm Booking</text></g><!--entity U--><g id="elem_U"><ellipse cx="57.5" cy="14" fill="#F1F1F1" rx="8" ry="8" style="stroke:#181818;stroke-width:0.5;"></ellipse><path d="M57.5,22 L57.5,49 M44.5,30 L70.5,30 M57.5,49 L44.5,64 M57.5,49 L70.5,64 " fill="none" style="stroke:#181818;stroke-width:0.5;"></path><text fill="#000000" font-family="sans-serif" font-size="14" lengthAdjust="spacing" textLength="32" x="41.5" y="78.4951">User</text></g><!--entity A--><g id="elem_A"><ellipse cx="57.5" cy="125" fill="#F1F1F1" rx="8" ry="8" style="stroke:#181818;stroke-width:0.5;"></ellipse><path d="M57.5,133 L57.5,160 M44.5,141 L70.5,141 M57.5,160 L44.5,175 M57.5,160 L70.5,175 " fill="none" style="stroke:#181818;stroke-width:0.5;"></path><text fill="#000000" font-family="sans-serif" font-size="14" lengthAdjust="spacing" textLength="43" x="36" y="189.4951">Admin</text></g><!--entity D--><g id="elem_D"><ellipse cx="57.5" cy="236" fill="#F1F1F1" rx="8" ry="8" style="stroke:#181818;stroke-width:0.5;"></ellipse><path d="M57.5,244 L57.5,271 M44.5,252 L70.5,252 M57.5,271 L44.5,286 M57.5,271 L70.5,286 " fill="none" style="stroke:#181818;stroke-width:0.5;"></path><text fill="#000000" font-family="sans-serif" font-size="14" lengthAdjust="spacing" textLength="103" x="6" y="300.4951">DeliveryPerson</text></g><!--entity S--><g id="elem_S"><ellipse cx="57.5" cy="347" fill="#F1F1F1" rx="8" ry="8" style="stroke:#181818;stroke-width:0.5;"></ellipse><path d="M57.5,355 L57.5,382 M44.5,363 L70.5,363 M57.5,382 L44.5,397 M57.5,382 L70.5,397 " fill="none" style="stroke:#181818;stroke-width:0.5;"></path><text fill="#000000" font-family="sans-serif" font-size="14" lengthAdjust="spacing" textLength="86" x="14.5" y="411.4951">SMSProvider</text></g><!--entity E--><g id="elem_E"><ellipse cx="57.5" cy="458" fill="#F1F1F1" rx="8" ry="8" style="stroke:#181818;stroke-width:0.5;"></ellipse><path d="M57.5,466 L57.5,493 M44.5,474 L70.5,474 M57.5,493 L44.5,508 M57.5,493 L70.5,508 " fill="none" style="stroke:#181818;stroke-width:0.5;"></path><text fill="#000000" font-family="sans-serif" font-size="14" lengthAdjust="spacing" textLength="92" x="11.5" y="522.4951">EmailProvider</text></g><!--link U to PBO--><g id="link_U_PBO"><path d="M73.75,49.84 C111.27,65.36 210.48,108.16 286,156.65 C324.75,181.53 365.31,215.65 391.65,239.05 " fill="none" id="U-to-PBO" style="stroke:#181818;stroke-width:1.0;"></path><polygon fill="#181818" points="395.08,242,391.0299,233.0224,391.3501,238.6702,385.7023,238.9903,395.08,242" style="stroke:#181818;stroke-width:1.0;"></polygon><text fill="#000000" font-family="sans-serif" font-size="13" lengthAdjust="spacing" textLength="129" x="148" y="76.7169">Place Booking Order</text></g><!--link PBO to SDD--><g id="link_PBO_SDD"><path d="M525.52,265.4 C588,265.25 667.48,265.05 729.91,264.9 " fill="none" id="PBO-to-SDD" style="stroke:#181818;stroke-width:1.0;"></path><polygon fill="#181818" points="734.9,264.89,725.8886,260.9157,729.9,264.9043,725.9115,268.9157,734.9,264.89" style="stroke:#181818;stroke-width:1.0;"></polygon><text fill="#000000" font-family="sans-serif" font-size="13" lengthAdjust="spacing" textLength="149" x="556.24" y="261.7169">Specify Delivery Details</text></g><!--link SDD to SQ--><g id="link_SDD_SQ"><path d="M930.85,263.51 C981.35,262.91 1042.54,262.19 1090.69,261.62 " fill="none" id="SDD-to-SQ" style="stroke:#181818;stroke-width:1.0;"></path><polygon fill="#181818" points="1095.49,261.55,1086.4338,257.679,1090.4905,261.6214,1086.5481,265.6782,1095.49,261.55" style="stroke:#181818;stroke-width:1.0;"></polygon><text fill="#000000" font-family="sans-serif" font-size="13" lengthAdjust="spacing" textLength="104" x="961.76" y="258.7169">Specify Quantity</text></g><!--link SQ to CB--><g id="link_SQ_CB"><path d="M1250.08,260.65 C1298.35,260.65 1360.91,260.65 1410.59,260.65 " fill="none" id="SQ-to-CB" style="stroke:#181818;stroke-width:1.0;"></path><polygon fill="#181818" points="1415.59,260.65,1406.59,256.65,1410.59,260.65,1406.59,264.65,1415.59,260.65" style="stroke:#181818;stroke-width:1.0;"></polygon><text fill="#000000" font-family="sans-serif" font-size="13" lengthAdjust="spacing" textLength="105" x="1280.88" y="256.7169">Confirm Booking</text></g><!--link A to PBO--><g id="link_A_PBO"><path d="M79.27,161.02 C131.42,177 269.69,219.39 353.38,245.04 " fill="none" id="A-to-PBO" style="stroke:#181818;stroke-width:1.0;"></path><polygon fill="#181818" points="358.06,246.78,350.6153,240.332,353.2768,245.3236,348.2851,247.9851,358.06,246.78" style="stroke:#181818;stroke-width:1.0;"></polygon><text fill="#000000" font-family="sans-serif" font-size="13" lengthAdjust="spacing" textLength="82" x="171.5" y="177.7169">Notify Admin</text></g><!--link D to PBO--><g id="link_D_PBO"><path d="M109.23,265.65 C161.58,265.65 244.85,265.65 312.11,265.65 " fill="none" id="D-to-PBO" style="stroke:#181818;stroke-width:1.0;"></path><polygon fill="#181818" points="316.75,265.65,307.75,261.65,311.75,265.65,307.75,269.65,316.75,265.65" style="stroke:#181818;stroke-width:1.0;"></polygon><text fill="#000000" font-family="sans-serif" font-size="13" lengthAdjust="spacing" textLength="145" x="140" y="261.7169">Assign Delivery Person</text></g><!--link S to PBO--><g id="link_S_PBO"><path d="M100.75,363.7 C162.93,344.64 279.72,308.84 353.66,286.18 " fill="none" id="S-to-PBO" style="stroke:#181818;stroke-width:1.0;"></path><polygon fill="#181818" points="358.35,284.43,348.5709,283.2598,353.572,285.9034,350.9284,290.9046,358.35,284.43" style="stroke:#181818;stroke-width:1.0;"></polygon><text fill="#000000" font-family="sans-serif" font-size="13" lengthAdjust="spacing" textLength="121" x="152" y="304.7169">Send Booking SMS</text></g><!--link E to PBO--><g id="link_E_PBO"><path d="M103.68,468.75 C150.75,448.25 225.88,413.25 286,374.65 C324.75,349.77 365.31,315.65 391.65,292.25 " fill="none" id="E-to-PBO" style="stroke:#181818;stroke-width:1.0;"></path><polygon fill="#181818" points="395.08,289.3,385.6966,292.2919,391.3437,292.6227,391.0129,298.2699,395.08,289.3" style="stroke:#181818;stroke-width:1.0;"></polygon><text fill="#000000" font-family="sans-serif" font-size="13" lengthAdjust="spacing" textLength="127" x="149" y="370.7169">Send Booking Email</text></g><!--SRC=[TT7FQeGm40RmUvvYyBulq4F1V_JIhKhm0O96EpGc9SakIEcxDvcuNIrTJvhlP-Q3KNBou0rOdDyzZ6ZbuD5eniJWZONUIGl2GRzzv-E2EXxasq4b5LwbNLjfdQ6asX9-vgqrLnpJ3NmxhXU1QX_KZCMXGizAGjPeXLh2Q_i2XJ4Vg6VWg_DooU2BGNWkJWx21TagCHnXOyELMRopBPeZvfzom6dzhHjUVEZXIFEg-bzt5w4z-ZMfxeXAeoUqosqwcR9WX7eudPvZ2tY2rFFGaKnCemhJWtfKa6WaHBkTl9LBeYDG5W7yAKPvlYlqPdpydrP9ORKBS-TmrlSQQQzfnevngSVxWiwSGFq8qCxPzmy0]--></g></svg>