<!--?xml version="1.0" encoding="us-ascii" standalone="no"?--><svg xmlns="http://www.w3.org/2000/svg" xmlns:xlink="http://www.w3.org/1999/xlink" contentstyletype="text/css" height="580px" preserveAspectRatio="none" style="width:1020px;height:580px;background:#FFFFFF;" version="1.1" viewBox="0 0 1020 580" width="1020px" zoomAndPan="magnify"><defs></defs><g><!--cluster Online LPG Booking System--><g id="cluster_Online LPG Booking System"><rect fill="none" height="253" rx="2.5" ry="2.5" style="stroke:#181818;stroke-width:1.0;" width="664.37" x="350" y="116.65"></rect><text fill="#000000" font-family="sans-serif" font-size="14" font-weight="bold" lengthAdjust="spacing" textLength="217" x="573.685" y="131.6451">Online LPG Booking System</text></g><g id="elem_UR"><ellipse cx="487.7063" cy="169.6493" fill="#F1F1F1" rx="80.1963" ry="18.4393" style="stroke:#181818;stroke-width:0.5;"></ellipse><text fill="#000000" font-family="sans-serif" font-size="14" lengthAdjust="spacing" textLength="119" x="426.6139" y="173.0079">User Registration</text></g><g id="elem_UA"><ellipse cx="910.9044" cy="171.6549" fill="#F1F1F1" rx="87.4744" ry="19.8949" style="stroke:#181818;stroke-width:0.5;"></ellipse><text fill="#000000" font-family="sans-serif" font-size="14" lengthAdjust="spacing" textLength="136" x="842.9044" y="174.5016">User Authentication</text></g><g id="elem_AA"><ellipse cx="487.7118" cy="243.6464" fill="#F1F1F1" rx="92.3318" ry="20.8664" style="stroke:#181818;stroke-width:0.5;"></ellipse><text fill="#000000" font-family="sans-serif" font-size="14" lengthAdjust="spacing" textLength="147" x="414.2118" y="246.493">Admin Authentication</text></g><g id="elem_DA"><ellipse cx="487.7105" cy="326.6521" fill="#F1F1F1" rx="121.7105" ry="26.7421" style="stroke:#181818;stroke-width:0.5;"></ellipse><text fill="#000000" font-family="sans-serif" font-size="14" lengthAdjust="spacing" textLength="211" x="382.2105" y="329.4988">Delivery Person Authentication</text></g><g id="elem_SS"><ellipse cx="910.8968" cy="249.6474" fill="#F1F1F1" rx="62.0868" ry="14.8174" style="stroke:#181818;stroke-width:0.5;"></ellipse><text fill="#000000" font-family="sans-serif" font-size="14" lengthAdjust="spacing" textLength="70" x="872.8968" y="253.3949">Send SMS</text></g><g id="elem_SE"><ellipse cx="910.8994" cy="330.6519" fill="#F1F1F1" rx="64.0594" ry="15.2119" style="stroke:#181818;stroke-width:0.5;"></ellipse><text fill="#000000" font-family="sans-serif" font-size="14" lengthAdjust="spacing" textLength="76" x="869.8994" y="334.3994">Send Email</text></g><!--entity U--><g id="elem_U"><ellipse cx="487.71" cy="14" fill="#F1F1F1" rx="8" ry="8" style="stroke:#181818;stroke-width:0.5;"></ellipse><path d="M487.71,22 L487.71,49 M474.71,30 L500.71,30 M487.71,49 L474.71,64 M487.71,49 L500.71,64 " fill="none" style="stroke:#181818;stroke-width:0.5;"></path><text fill="#000000" font-family="sans-serif" font-size="14" lengthAdjust="spacing" textLength="32" x="471.71" y="78.4951">User</text></g><!--entity A--><g id="elem_A"><ellipse cx="57.5" cy="200" fill="#F1F1F1" rx="8" ry="8" style="stroke:#181818;stroke-width:0.5;"></ellipse><path d="M57.5,208 L57.5,235 M44.5,216 L70.5,216 M57.5,235 L44.5,250 M57.5,235 L70.5,250 " fill="none" style="stroke:#181818;stroke-width:0.5;"></path><text fill="#000000" font-family="sans-serif" font-size="14" lengthAdjust="spacing" textLength="43" x="36" y="264.4951">Admin</text></g><!--entity D--><g id="elem_D"><ellipse cx="57.5" cy="312" fill="#F1F1F1" rx="8" ry="8" style="stroke:#181818;stroke-width:0.5;"></ellipse><path d="M57.5,320 L57.5,347 M44.5,328 L70.5,328 M57.5,347 L44.5,362 M57.5,347 L70.5,362 " fill="none" style="stroke:#181818;stroke-width:0.5;"></path><text fill="#000000" font-family="sans-serif" font-size="14" lengthAdjust="spacing" textLength="103" x="6" y="376.4951">DeliveryPerson</text></g><!--entity S--><g id="elem_S"><ellipse cx="487.71" cy="397" fill="#F1F1F1" rx="8" ry="8" style="stroke:#181818;stroke-width:0.5;"></ellipse><path d="M487.71,405 L487.71,432 M474.71,413 L500.71,413 M487.71,432 L474.71,447 M487.71,432 L500.71,447 " fill="none" style="stroke:#181818;stroke-width:0.5;"></path><text fill="#000000" font-family="sans-serif" font-size="14" lengthAdjust="spacing" textLength="86" x="444.71" y="461.4951">SMSProvider</text></g><!--entity E--><g id="elem_E"><ellipse cx="487.71" cy="508" fill="#F1F1F1" rx="8" ry="8" style="stroke:#181818;stroke-width:0.5;"></ellipse><path d="M487.71,516 L487.71,543 M474.71,524 L500.71,524 M487.71,543 L474.71,558 M487.71,543 L500.71,558 " fill="none" style="stroke:#181818;stroke-width:0.5;"></path><text fill="#000000" font-family="sans-serif" font-size="14" lengthAdjust="spacing" textLength="92" x="441.71" y="572.4951">EmailProvider</text></g><!--link U to UR--><g id="link_U_UR"><path d="M487.71,82.21 C487.71,102.65 487.71,127.14 487.71,145 " fill="none" id="U-to-UR" style="stroke:#181818;stroke-width:1.0;"></path><polygon fill="#181818" points="487.71,149.79,491.71,140.79,487.71,144.79,483.71,140.79,487.71,149.79" style="stroke:#181818;stroke-width:1.0;"></polygon><text fill="#000000" font-family="sans-serif" font-size="13" lengthAdjust="spacing" textLength="52" x="450.21" y="121.0769">Register</text></g><!--link U to UA--><g id="link_U_UA"><path d="M503.97,43.15 C549.73,42.19 689.06,43.18 793.42,85.65 C829,100.13 863.6,127.97 885.72,148.06 " fill="none" id="U-to-UA" style="stroke:#181818;stroke-width:1.0;"></path><polygon fill="#181818" points="888.97,150.96,885.048,141.9257,885.2878,147.5775,879.636,147.8173,888.97,150.96" style="stroke:#181818;stroke-width:1.0;"></polygon><text fill="#000000" font-family="sans-serif" font-size="13" lengthAdjust="spacing" textLength="82" x="675.42" y="46.7169">Authenticate</text></g><!--link UA to U--><g id="link_UA_U"><path d="M847.3,157.69 C768.98,140.21 644.42,112.31 639.42,110.65 C591.32,94.71 537.69,68.79 509.17,54.3 " fill="none" id="UA-to-U" style="stroke:#181818;stroke-width:1.0;"></path><polygon fill="#181818" points="505.15,51.74,511.3331,59.4061,509.5991,54.0216,514.9836,52.2876,505.15,51.74" style="stroke:#181818;stroke-width:1.0;"></polygon><text fill="#000000" font-family="sans-serif" font-size="13" lengthAdjust="spacing" textLength="124" x="654.42" y="106.7169">User Authenticated</text></g><!--link A to AA--><g id="link_A_AA"><path d="M79.25,229.45 C125.17,229.08 238.89,228.71 334,232.65 C353.58,233.46 374.55,234.72 394.48,236.1 " fill="none" id="A-to-AA" style="stroke:#181818;stroke-width:1.0;"></path><polygon fill="#181818" points="399.35,236.51,390.6456,231.902,394.3618,236.167,390.0968,239.8831,399.35,236.51" style="stroke:#181818;stroke-width:1.0;"></polygon><text fill="#000000" font-family="sans-serif" font-size="13" lengthAdjust="spacing" textLength="82" x="195.5" y="225.7169">Authenticate</text></g><!--link AA to A--><g id="link_AA_A"><path d="M411.19,255.62 C340.37,264.75 231.78,273.33 139,257.65 C120.29,254.49 100.12,247.47 84.65,241.25 " fill="none" id="AA-to-A" style="stroke:#181818;stroke-width:1.0;"></path><polygon fill="#181818" points="80.18,239,86.9868,246.1181,84.8055,240.8987,90.0248,238.7173,80.18,239" style="stroke:#181818;stroke-width:1.0;"></polygon><text fill="#000000" font-family="sans-serif" font-size="13" lengthAdjust="spacing" textLength="135" x="169" y="253.7169">Admin Authenticated</text></g><!--link D to DA--><g id="link_D_DA"><path d="M109.3,339.87 C171.02,337.71 277.32,333.99 361.41,331.04 " fill="none" id="D-to-DA" style="stroke:#181818;stroke-width:1.0;"></path><polygon fill="#181818" points="366.17,330.84,357.0379,327.1516,361.173,331.0118,357.3128,335.1469,366.17,330.84" style="stroke:#181818;stroke-width:1.0;"></polygon><text fill="#000000" font-family="sans-serif" font-size="13" lengthAdjust="spacing" textLength="82" x="195.5" y="328.7169">Authenticate</text></g><!--link DA to D--><g id="link_DA_D"><path d="M414.76,348.39 C389.48,355 360.71,361.38 334,364.65 C247.98,375.19 224.83,376.67 139,364.65 C131.05,363.54 122.78,361.83 114.7,359.85 " fill="none" id="DA-to-D" style="stroke:#181818;stroke-width:1.0;"></path><polygon fill="#181818" points="110.14,358.43,117.8632,364.5417,114.9831,359.6729,119.8518,356.7928,110.14,358.43" style="stroke:#181818;stroke-width:1.0;"></polygon><text fill="#000000" font-family="sans-serif" font-size="13" lengthAdjust="spacing" textLength="193" x="140" y="360.7169">Delivery Person Authenticated</text></g><!--link S to SS--><g id="link_S_SS"><path d="M530.97,423.68 C593.6,417.44 712.35,398.33 793.42,340.65 C812.41,327.14 806.12,313.26 823.42,297.65 C838.21,284.31 857.35,273.2 873.86,265.04 " fill="none" id="S-to-SS" style="stroke:#181818;stroke-width:1.0;"></path><polygon fill="#181818" points="877.9,262.61,868.0568,262.9441,873.4025,264.7945,871.552,270.1402,877.9,262.61" style="stroke:#181818;stroke-width:1.0;"></polygon><text fill="#000000" font-family="sans-serif" font-size="13" lengthAdjust="spacing" textLength="66" x="683.42" y="336.7169">Send SMS</text></g><!--link E to SE--><g id="link_E_SE"><path d="M534,526.87 C595.49,511.05 707.56,477.98 793.42,428.65 C831.66,406.68 869.54,371.71 891.28,350.03 " fill="none" id="E-to-SE" style="stroke:#181818;stroke-width:1.0;"></path><polygon fill="#181818" points="894.41,346.87,885.232,350.4427,890.8888,350.4198,890.9117,356.0766,894.41,346.87" style="stroke:#181818;stroke-width:1.0;"></polygon><text fill="#000000" font-family="sans-serif" font-size="13" lengthAdjust="spacing" textLength="72" x="680.42" y="424.7169">Send Email</text></g><!--link UR to UA--><g id="link_UR_UA"><path d="M567.93,170.03 C638.77,170.36 742.62,170.86 817.27,171.21 " fill="none" id="UR-to-UA" style="stroke:#181818;stroke-width:1.0;"></path><polygon fill="#181818" points="822.04,171.24,813.0515,167.2143,817.04,171.2257,813.0286,175.2143,822.04,171.24" style="stroke:#181818;stroke-width:1.0;"></polygon><text fill="#000000" font-family="sans-serif" font-size="13" lengthAdjust="spacing" textLength="116" x="658.42" y="166.7169">Authenticate User</text></g><!--link UR to SS--><g id="link_UR_SS"><path d="M550.41,181.37 C632.74,197.01 777.25,224.46 855.64,239.35 " fill="none" id="UR-to-SS" style="stroke:#181818;stroke-width:1.0;"></path><polygon fill="#181818" points="860.16,240.4,852.0749,234.7758,855.2496,239.4579,850.5675,242.6325,860.16,240.4" style="stroke:#181818;stroke-width:1.0;"></polygon><text fill="#000000" font-family="sans-serif" font-size="13" lengthAdjust="spacing" textLength="146" x="643.42" y="196.7169">Send Registration SMS</text></g><!--link UR to SE--><g id="link_UR_SE"><path d="M554.32,180.31 C573.39,185.67 593.39,193.68 609.42,205.65 C628.98,220.25 619.82,237.1 639.42,251.65 C699.99,296.61 785.73,316.07 844.34,324.44 " fill="none" id="UR-to-SE" style="stroke:#181818;stroke-width:1.0;"></path><polygon fill="#181818" points="849.28,325.26,840.913,320.0645,844.3272,324.5749,839.8168,327.9891,849.28,325.26" style="stroke:#181818;stroke-width:1.0;"></polygon><text fill="#000000" font-family="sans-serif" font-size="13" lengthAdjust="spacing" textLength="152" x="640.42" y="247.7169">Send Registration Email</text></g><!--SRC=[VPB1QiGW54Nt-Oh7xES7kYXO3DsqD4Jo0PAyPXvD5DGP64h_lVeqRHgasNdFLUzzSS7t0C62e_aIO2A7Oo1h6Zq6ws3mw41x6CfQJ2kP98WYI5peXkxUeVEMYIn4lQhEsHjD-GHLv7RLjEn1spJfJctc1U7qPXOo22_TCpnP-q5c1dNt0TSJV3OGlwl7KVlev6WzpkI3qodoYOFs5PUuXWkQGEFE9_xwSh6AKHoCMs4eZIjRv66BGZEbSJ1KgW9vA1d7SIG-mFdy6Dl0G-c8Rg-BgEzkHcQ2cQWooKnMcMAcL6HRLDRRhBURpYbBlBwUWnzCTkGqGpGS_m5EEMx9cuuuJhzOPBR8QFbdxiLSCltss3-EdrARgwswSiMlRm00]--></g></svg>