<!--?xml version="1.0" encoding="us-ascii" standalone="no"?--><svg xmlns="http://www.w3.org/2000/svg" xmlns:xlink="http://www.w3.org/1999/xlink" contentstyletype="text/css" height="480px" preserveAspectRatio="none" style="width:857px;height:480px;background:#FFFFFF;" version="1.1" viewBox="0 0 857 480" width="857px" zoomAndPan="magnify"><defs></defs><g><!--cluster OnlineLPGBookingSystem--><g id="cluster_OnlineLPGBookingSystem"><rect fill="none" height="377" rx="2.5" ry="2.5" style="stroke:#181818;stroke-width:1.0;" width="589.61" x="262" y="97.65"></rect><text fill="#000000" font-family="sans-serif" font-size="14" font-weight="bold" lengthAdjust="spacing" textLength="202" x="455.805" y="112.6451">OnlineLPGBookingSystem</text></g><g id="elem_MO"><ellipse cx="738.8007" cy="148.6461" fill="#F1F1F1" rx="67.8807" ry="15.9761" style="stroke:#181818;stroke-width:0.5;"></ellipse><text fill="#000000" font-family="sans-serif" font-size="14" lengthAdjust="spacing" textLength="87" x="692.3007" y="152.3937">Modify Order</text></g><g id="elem_CO"><ellipse cx="738.804" cy="215.6528" fill="#F1F1F1" rx="68.964" ry="16.1928" style="stroke:#181818;stroke-width:0.5;"></ellipse><text fill="#000000" font-family="sans-serif" font-size="14" lengthAdjust="spacing" textLength="90" x="690.804" y="219.4004">Cancel Order</text></g><g id="elem_MOO"><ellipse cx="352.9948" cy="285.649" fill="#F1F1F1" rx="74.9948" ry="17.399" style="stroke:#181818;stroke-width:0.5;"></ellipse><text fill="#000000" font-family="sans-serif" font-size="14" lengthAdjust="spacing" textLength="106" x="296.9948" y="289.3965">Manage Orders</text></g><g id="elem_VOD"><ellipse cx="738.7979" cy="285.6476" fill="#F1F1F1" rx="83.1379" ry="19.0276" style="stroke:#181818;stroke-width:0.5;"></ellipse><text fill="#000000" font-family="sans-serif" font-size="14" lengthAdjust="spacing" textLength="126" x="675.2514" y="288.6794">View Order Details</text></g><g id="elem_ADP"><ellipse cx="738.7993" cy="436.6519" fill="#F1F1F1" rx="96.8093" ry="21.7619" style="stroke:#181818;stroke-width:0.5;"></ellipse><text fill="#000000" font-family="sans-serif" font-size="14" lengthAdjust="spacing" textLength="157" x="660.2993" y="439.4985">Assign Delivery Person</text></g><g id="elem_UOS"><ellipse cx="738.8028" cy="359.6546" fill="#F1F1F1" rx="89.6728" ry="20.3346" style="stroke:#181818;stroke-width:0.5;"></ellipse><text fill="#000000" font-family="sans-serif" font-size="14" lengthAdjust="spacing" textLength="141" x="668.3028" y="362.5012">Update Order Status</text></g><!--entity U--><g id="elem_U"><ellipse cx="352.99" cy="14" fill="#F1F1F1" rx="8" ry="8" style="stroke:#181818;stroke-width:0.5;"></ellipse><path d="M352.99,22 L352.99,49 M339.99,30 L365.99,30 M352.99,49 L339.99,64 M352.99,49 L365.99,64 " fill="none" style="stroke:#181818;stroke-width:0.5;"></path><text fill="#000000" font-family="sans-serif" font-size="14" lengthAdjust="spacing" textLength="32" x="336.99" y="78.4951">User</text></g><!--entity A--><g id="elem_A"><ellipse cx="57.5" cy="200" fill="#F1F1F1" rx="8" ry="8" style="stroke:#181818;stroke-width:0.5;"></ellipse><path d="M57.5,208 L57.5,235 M44.5,216 L70.5,216 M57.5,235 L44.5,250 M57.5,235 L70.5,250 " fill="none" style="stroke:#181818;stroke-width:0.5;"></path><text fill="#000000" font-family="sans-serif" font-size="14" lengthAdjust="spacing" textLength="43" x="36" y="264.4951">Admin</text></g><!--entity D--><g id="elem_D"><ellipse cx="57.5" cy="311" fill="#F1F1F1" rx="8" ry="8" style="stroke:#181818;stroke-width:0.5;"></ellipse><path d="M57.5,319 L57.5,346 M44.5,327 L70.5,327 M57.5,346 L44.5,361 M57.5,346 L70.5,361 " fill="none" style="stroke:#181818;stroke-width:0.5;"></path><text fill="#000000" font-family="sans-serif" font-size="14" lengthAdjust="spacing" textLength="103" x="6" y="375.4951">DeliveryPerson</text></g><!--link U to MO--><g id="link_U_MO"><path d="M369.22,44.3 C409.71,46.4 523.01,54.62 611.99,83.65 C647.12,95.11 684.37,115.52 709.14,130.42 " fill="none" id="U-to-MO" style="stroke:#181818;stroke-width:1.0;"></path><polygon fill="#181818" points="713.23,133.51,707.6022,125.4274,708.9527,130.9207,703.4594,132.2711,713.23,133.51" style="stroke:#181818;stroke-width:1.0;"></polygon><text fill="#000000" font-family="sans-serif" font-size="13" lengthAdjust="spacing" textLength="92" x="488.99" y="48.7169">Modifies Order</text></g><!--link U to CO--><g id="link_U_CO"><path d="M369.27,55.61 C388.77,70.29 424.05,94.9 457.99,108.65 C522.87,134.93 553.03,103.92 611.99,141.65 C630.71,153.63 624.09,168.48 641.99,181.65 C654.17,190.61 668.92,197.37 683.16,202.42 " fill="none" id="U-to-CO" style="stroke:#181818;stroke-width:1.0;"></path><polygon fill="#181818" points="687.79,204.33,680.5469,197.6564,683.0538,202.7274,677.9827,205.2343,687.79,204.33" style="stroke:#181818;stroke-width:1.0;"></polygon><text fill="#000000" font-family="sans-serif" font-size="13" lengthAdjust="spacing" textLength="90" x="489.99" y="104.7169">Cancels Order</text></g><!--link A to MOO--><g id="link_A_MOO"><path d="M79.14,233.59 C121.97,241.76 222.04,260.85 288.35,273.51 " fill="none" id="A-to-MOO" style="stroke:#181818;stroke-width:1.0;"></path><polygon fill="#181818" points="292.86,274.56,284.7749,268.9358,287.9496,273.6179,283.2675,276.7925,292.86,274.56" style="stroke:#181818;stroke-width:1.0;"></polygon><text fill="#000000" font-family="sans-serif" font-size="13" lengthAdjust="spacing" textLength="105" x="140" y="241.7169">Manages Orders</text></g><!--link D to MOO--><g id="link_D_MOO"><path d="M109.29,331.13 C158.76,321.86 234.13,307.74 287.74,297.69 " fill="none" id="D-to-MOO" style="stroke:#181818;stroke-width:1.0;"></path><polygon fill="#181818" points="292.52,296.61,282.9402,294.3237,287.6043,297.5245,284.4035,302.1887,292.52,296.61" style="stroke:#181818;stroke-width:1.0;"></polygon><text fill="#000000" font-family="sans-serif" font-size="13" lengthAdjust="spacing" textLength="105" x="140" y="301.7169">Manages Orders</text></g><!--link MOO to MO--><g id="link_MOO_MO"><path d="M372.4,268.45 C392.08,251 424.95,224.52 457.99,209.65 C526.37,178.88 611.3,163.19 669.54,155.5 " fill="none" id="MOO-to-MO" style="stroke:#181818;stroke-width:1.0;"></path><polygon fill="#181818" points="674.45,154.73,665.0103,151.9207,669.4915,155.373,666.0392,159.8542,674.45,154.73" style="stroke:#181818;stroke-width:1.0;"></polygon><text fill="#000000" font-family="sans-serif" font-size="13" lengthAdjust="spacing" textLength="92" x="488.99" y="161.7169">Modifies Order</text></g><!--link MOO to CO--><g id="link_MOO_CO"><path d="M405.96,272.97 C422.54,269.11 440.99,265 457.99,261.65 C531.53,247.13 616.58,233.61 673.43,225.04 " fill="none" id="MOO-to-CO" style="stroke:#181818;stroke-width:1.0;"></path><polygon fill="#181818" points="678.19,224.17,668.6966,221.548,673.2452,224.911,669.8822,229.4596,678.19,224.17" style="stroke:#181818;stroke-width:1.0;"></polygon><text fill="#000000" font-family="sans-serif" font-size="13" lengthAdjust="spacing" textLength="90" x="489.99" y="230.7169">Cancels Order</text></g><!--link MOO to VOD--><g id="link_MOO_VOD"><path d="M428.45,285.65 C491.62,285.65 582.36,285.65 649.24,285.65 " fill="none" id="MOO-to-VOD" style="stroke:#181818;stroke-width:1.0;"></path><polygon fill="#181818" points="654.23,285.65,645.23,281.65,649.23,285.65,645.23,289.65,654.23,285.65" style="stroke:#181818;stroke-width:1.0;"></polygon><text fill="#000000" font-family="sans-serif" font-size="13" lengthAdjust="spacing" textLength="124" x="472.99" y="281.7169">Views Order Details</text></g><!--link MOO to ADP--><g id="link_MOO_ADP"><path d="M372.08,302.73 C391.75,320.42 424.85,347.67 457.99,363.65 C519.74,393.43 595.23,412.21 652.23,423.25 " fill="none" id="MOO-to-ADP" style="stroke:#181818;stroke-width:1.0;"></path><polygon fill="#181818" points="657.04,424.36,648.9579,418.7315,652.1301,423.4152,647.4463,426.5874,657.04,424.36" style="stroke:#181818;stroke-width:1.0;"></polygon><text fill="#000000" font-family="sans-serif" font-size="13" lengthAdjust="spacing" textLength="152" x="458.99" y="359.7169">Assigns Delivery Person</text></g><!--link MOO to UOS--><g id="link_MOO_UOS"><path d="M404.9,298.56 C421.75,302.65 440.63,307.05 457.99,310.65 C525.33,324.63 602.34,337.92 658.5,347.12 " fill="none" id="MOO-to-UOS" style="stroke:#181818;stroke-width:1.0;"></path><polygon fill="#181818" points="663.21,348.05,654.9647,342.6634,658.2742,347.2511,653.6865,350.5607,663.21,348.05" style="stroke:#181818;stroke-width:1.0;"></polygon><text fill="#000000" font-family="sans-serif" font-size="13" lengthAdjust="spacing" textLength="140" x="464.99" y="306.7169">Updates Order Status</text></g><!--SRC=[VP31JiCm38RlUGfhzxq01wJIIboeEgdgxbRhbMXfKiKPg4AyEqcJbHG1n_Zx7Dk_eei3Py3AyTN182trJXej-2hrZ1OdcB6_uaYjMnH1mAX7HK9Wxuo5Zia2CdJfNGoJrA5Gf495IhwHNKvasQoa4cBx1XgjfAQNq_EJCNxas2xiQ88F0N1Zwf493hKPv6M1nWva3-67kibnYRedbU5oXslKVls8ERNlXBEazuZziWwbYjQvgNAhO9QZtiw1UCzg5jKfDxjvG9S6GklGtUA7NTCAxtLmF3xw7U01riCaSNGtLWOMh_f6HMfR-zQJ4cCFg_zWAFyzyav_7Ng7FWjFGr2yJofpV0hUYJ7npvmopyVWlHWIxr8Idry0]--></g></svg>